<svg width="39" height="39" viewBox="0 0 39 39" fill="none" xmlns="http://www.w3.org/2000/svg">
<path d="M24.9097 16.4807C27.9919 21.2613 26.671 27.6145 21.8903 30.6968C17.1097 33.779 10.7565 32.4581 7.67419 27.6774L10.6306 25.6645C12.6435 28.7468 16.7952 29.6274 19.8774 27.6145C22.9597 25.6016 23.8403 21.45 21.8274 18.3677L24.9097 16.4807Z" fill="#4FDB4D"/>
<path d="M21.8903 30.6968C17.1097 33.779 10.7565 32.4581 7.67419 27.6774L10.6306 25.6645C12.6435 28.7468 16.7952 29.6274 19.8774 27.6145C22.9597 25.6016 23.8403 21.45 21.8274 18.3678L24.9097 16.4178" fill="white"/>
<path d="M31.7661 12.1403C28.6839 7.42258 22.3306 6.03871 17.55 9.18387C12.8322 12.2661 11.4484 18.6194 14.5935 23.4L17.6129 21.5129C15.6 18.4307 16.4806 14.279 19.5629 12.2661C22.6452 10.2532 26.7968 11.1339 28.8097 14.2161L31.7661 12.1403Z" fill="white"/>
<path d="M14.5306 23.3371L17.55 21.45C15.5371 18.3677 16.4177 14.2161 19.5 12.2032C22.5823 10.1903 26.7339 11.071 28.7468 14.1532L31.7661 12.1403C28.6839 7.42258 22.3306 6.03871 17.55 9.18387" fill="#4FDB4D"/>
<path d="M0 19.5C0 8.74355 8.74355 0 19.5 0C30.2565 0 39 8.74355 39 19.5C39 30.2565 30.2565 39 19.5 39C8.74355 39 0 30.2565 0 19.5ZM19.5 37.6161C29.5016 37.6161 37.6161 29.5016 37.6161 19.5C37.6161 9.49839 29.5016 1.38387 19.5 1.38387C9.49839 1.38387 1.38387 9.49839 1.38387 19.5C1.38387 29.5016 9.49839 37.6161 19.5 37.6161Z" fill="#4FDB4D"/>
<path d="M16.3548 37.3645C7.8629 35.8548 1.38387 28.4323 1.38387 19.5C1.38387 9.49839 9.49839 1.38387 19.5 1.38387C20.8839 1.38387 22.2048 1.57258 23.5258 1.82419L23.7774 0.503226C22.3935 0.18871 20.9468 0 19.5 0C8.74355 0 0 8.74355 0 19.5C0 29.1242 6.91936 37.1129 16.1032 38.6855L16.3548 37.3645Z" fill="white"/>
</svg>
